<svg xmlns="http://www.w3.org/2000/svg" xmlns:xlink="http://www.w3.org/1999/xlink" viewBox="0 0 127.96 128"><defs><style>.cls-1{fill:none;}.cls-2{fill:#ddac5e;}.cls-3{fill:url(#무제_그라디언트_4);}.cls-4{fill:#a0a0a0;}.cls-5{fill:#e8e8e8;}</style><linearGradient id="무제_그라디언트_4" x1="18.55" y1="10132.16" x2="110.22" y2="10083.83" gradientTransform="matrix(1, 0, 0, -1, 0, 10169)" gradientUnits="userSpaceOnUse"><stop offset="0" stop-color="#db9c43"/><stop offset="1" stop-color="#b64646"/></linearGradient></defs><title>자산 164</title><g id="레이어_2" data-name="레이어 2"><g id="_0205" data-name="0205"><rect class="cls-1" width="127.96" height="128"/><polygon class="cls-2" points="12.86 13.71 56.21 13.71 67.83 26.01 54.74 37.3 12.86 37.3 12.86 13.71"/><polygon class="cls-3" points="9.84 37.03 53.09 37.03 71.21 21.32 113.47 21.32 113.47 97.8 9.84 97.8 9.84 37.03"/><rect class="cls-4" x="99.36" y="84.37" width="9.24" height="31.78" transform="translate(-40.44 102.91) rotate(-45.01)"/><path class="cls-4" d="M74.32,44.22a26.39,26.39,0,1,0,26.34,26.43v0A26.39,26.39,0,0,0,74.32,44.22Zm0,43.54A17.15,17.15,0,1,1,91.46,70.61h0A17.14,17.14,0,0,1,74.32,87.76Z"/><rect class="cls-5" x="99.36" y="81.84" width="9.24" height="31.78" transform="translate(-38.65 102.17) rotate(-45.01)"/><path class="cls-5" d="M74.32,41.67A26.39,26.39,0,1,0,100.66,68.1v0A26.39,26.39,0,0,0,74.32,41.67Zm0,43.54A17.15,17.15,0,1,1,91.46,68.06h0A17.14,17.14,0,0,1,74.32,85.21Z"/></g></g></svg>