<svg xmlns="http://www.w3.org/2000/svg" xmlns:xlink="http://www.w3.org/1999/xlink" viewBox="0 0 127.96 130.5"><defs><style>.cls-1{fill:none;}.cls-2{fill:url(#radial-gradient);}.cls-3{clip-path:url(#clip-path);}.cls-4{fill:#efefef;}.cls-5,.cls-6{isolation:isolate;font-size:38.04px;font-family:Arial-BoldMT, Arial;font-weight:700;}.cls-5{fill:#4e6a7f;}.cls-6{fill:#fff;}</style><radialGradient id="radial-gradient" cx="64.15" cy="-442.25" r="80.29" gradientTransform="matrix(1, 0, 0, -1, 0, -377)" gradientUnits="userSpaceOnUse"><stop offset="0" stop-color="#89ccc9"/><stop offset="0.31" stop-color="#88cac7" stop-opacity="0.99"/><stop offset="0.42" stop-color="#83c3c0" stop-opacity="0.96"/><stop offset="0.5" stop-color="#7bb8b5" stop-opacity="0.9"/><stop offset="0.57" stop-color="#70a7a4" stop-opacity="0.82"/><stop offset="0.62" stop-color="#61918e" stop-opacity="0.71"/><stop offset="0.67" stop-color="#4f7574" stop-opacity="0.58"/><stop offset="0.72" stop-color="#395554" stop-opacity="0.42"/><stop offset="0.76" stop-color="#202f2f" stop-opacity="0.23"/><stop offset="0.79" stop-color="#040606" stop-opacity="0.03"/><stop offset="0.8" stop-opacity="0"/></radialGradient><clipPath id="clip-path"><circle class="cls-1" cx="64.15" cy="65.25" r="50.75"/></clipPath></defs><title>vpn</title><g id="Layer_2" data-name="Layer 2"><g id="Layer_1-2" data-name="Layer 1"><rect class="cls-1" y="2.5" width="127.96" height="128"/><circle class="cls-2" cx="64.15" cy="65.25" r="50.75"/><g class="cls-3"><path class="cls-4" d="M44,11.61a161.6,161.6,0,0,0-4.7,16.27,139.44,139.44,0,0,0-3,16.62,97.34,97.34,0,0,0-.55,16.81A51.14,51.14,0,0,0,39.17,77.6a40.75,40.75,0,0,0,4,7.3c1.55,2.34,3.18,4.62,4.94,6.8a93.57,93.57,0,0,0,25.41,21.86,80.68,80.68,0,0,0,15.31,7.12,83.33,83.33,0,0,1-29.79-16,77.92,77.92,0,0,1-6.3-5.75A82,82,0,0,1,47,92.58c-1.79-2.21-3.49-4.51-5.08-6.87-.77-1.2-1.57-2.38-2.27-3.65a34.91,34.91,0,0,1-1.85-3.91,52.84,52.84,0,0,1-3.45-16.76,87.11,87.11,0,0,1,.82-17A140.37,140.37,0,0,1,44,11.61Z"/><path class="cls-4" d="M69.45,6.93A116.76,116.76,0,0,0,70,19.05a107.87,107.87,0,0,0,1.67,12c1.57,7.86,4,15.71,8.38,22.34A43,43,0,0,0,88,62.28a64.43,64.43,0,0,0,9.85,6.85,82.47,82.47,0,0,0,10.88,5.14A89.44,89.44,0,0,0,120.22,78a78.78,78.78,0,0,1-23-7.9c-7.19-3.82-13.83-9-18.47-15.91A49.18,49.18,0,0,1,73.44,43.1c-.67-1.94-1.24-3.9-1.73-5.88s-.91-4-1.24-6A101.83,101.83,0,0,1,69.45,6.93Z"/><path class="cls-4" d="M49.53,125.83A117.94,117.94,0,0,0,63.7,114.71,101.17,101.17,0,0,0,75.91,101.5a72.77,72.77,0,0,0,9.27-15.3A54.59,54.59,0,0,0,89.61,69a64.64,64.64,0,0,0-1-17.83,92.05,92.05,0,0,0-5.15-17.18,120.74,120.74,0,0,0-8-16.11A124.24,124.24,0,0,0,65.25,3,116.65,116.65,0,0,1,75.82,17.63,118.47,118.47,0,0,1,84.11,33.7,87.1,87.1,0,0,1,89.46,51a65.76,65.76,0,0,1,1.11,18.09,54.72,54.72,0,0,1-1.5,9,59.21,59.21,0,0,1-3,8.57,73,73,0,0,1-9.47,15.44A106.5,106.5,0,0,1,49.53,125.83Z"/><path class="cls-4" d="M17.53,122.83A117.94,117.94,0,0,0,31.7,111.71,101.17,101.17,0,0,0,43.91,98.5a72.77,72.77,0,0,0,9.27-15.3A54.59,54.59,0,0,0,57.61,66a64.64,64.64,0,0,0-1-17.83,92.05,92.05,0,0,0-5.15-17.18,120.74,120.74,0,0,0-8-16.11A124.24,124.24,0,0,0,33.25,0,116.65,116.65,0,0,1,43.82,14.63,118.47,118.47,0,0,1,52.11,30.7,87.1,87.1,0,0,1,57.46,48a65.76,65.76,0,0,1,1.11,18.09,54.72,54.72,0,0,1-1.5,9,59.21,59.21,0,0,1-3,8.57A73,73,0,0,1,44.6,99.08,106.5,106.5,0,0,1,17.53,122.83Z"/><path class="cls-4" d="M4.25,73A118.07,118.07,0,0,0,18.7,80.23a118.1,118.1,0,0,0,15.17,5.33C44.18,88.41,55,89.78,65.63,88.45a64.75,64.75,0,0,0,15.5-3.88,69.31,69.31,0,0,0,7.26-3.38,78.12,78.12,0,0,0,6.8-4.25,72.29,72.29,0,0,0,11.88-10.77A67.61,67.61,0,0,0,116.29,53a68.63,68.63,0,0,1-20.7,24.5A63.68,63.68,0,0,1,65.7,89.43C54.91,90.76,44,89.31,33.61,86.31A114.4,114.4,0,0,1,4.25,73Z"/><path class="cls-4" d="M120,97.13A123.24,123.24,0,0,0,115.41,80a109.38,109.38,0,0,0-7-16.24,75.73,75.73,0,0,0-9.88-14.56,49.86,49.86,0,0,0-13.6-11A67.69,67.69,0,0,0,68.6,31.75a87.17,87.17,0,0,0-17.45-2.47,104.12,104.12,0,0,0-17.65.82,103.41,103.41,0,0,0-17.32,3.66,97.42,97.42,0,0,1,17.26-4.11,101.28,101.28,0,0,1,17.74-1.1,74.14,74.14,0,0,1,34.23,8.82A49.19,49.19,0,0,1,99.22,48.62a74.26,74.26,0,0,1,9.9,14.8A114.12,114.12,0,0,1,120,97.13Z"/><path class="cls-4" d="M104.25,126a115.73,115.73,0,0,0-6.55-14.44,118.37,118.37,0,0,0-8.25-13.49c-1.53-2.14-3.15-4.22-4.82-6.26s-3.46-4-5.3-5.84a70.42,70.42,0,0,0-12.26-9.85A125.43,125.43,0,0,0,38.38,63,114.46,114.46,0,0,0,23,59.35,85.9,85.9,0,0,0,7.22,58c10.6-.48,21.2,1.36,31.38,4.3a116.59,116.59,0,0,1,14.91,5.55,118.92,118.92,0,0,1,14.08,7.43c9,5.7,16.48,13.63,22.49,22.35A114.12,114.12,0,0,1,104.25,126Z"/></g><text class="cls-5" transform="matrix(1, -0.01, 0.01, 1, 24.84, 79.66)">VPN</text><text class="cls-6" transform="translate(24.34 76.15)">VPN</text></g></g></svg>