<svg xmlns="http://www.w3.org/2000/svg" viewBox="0 0 127.96 128"><defs><style>.cls-1{fill:none;}.cls-2{fill:#fff;}</style></defs><title>자산 163</title><g id="레이어_2" data-name="레이어 2"><g id="_0205" data-name="0205"><rect class="cls-1" width="127.96" height="128"/><path class="cls-2" d="M67.58,21.32c-7.91-10.43-20-15.42-30.4-13.59L52.52,28c1.86,2.47,1.56,5.3-.71,7L48,37.84l-.69.5-3.82,2.84c-2.28,1.69-5.11,1.19-7-1.28L21.14,19.67c-4.69,9.38-3.23,22.26,4.68,32.68s18,9.63,28.41,7.8L95,113.79c1.88,2.47,4.7,3,7,1.29l5.25-3.9c2.28-1.69,2.58-4.52.71-7L67.19,50.53C71.88,41.12,75.48,31.74,67.58,21.32Z"/><path class="cls-2" d="M64.57,84.87a4.55,4.55,0,0,0-.46-6.42,3.5,3.5,0,0,0-.43-.33l-1.83-1.4C67.6,69.37,83.3,49.25,88.26,42.89l1,.78,13.27-11.53,7.94-15.61-6.81-5.25L90.38,22.81,82.45,38.42l1.14.87L57.18,73.12l-1.83-1.4a4.66,4.66,0,0,0-6.56.52c-.09.11-.18.22-.26.34s-8.25,10.54-13.28,17L23,105.25a4.54,4.54,0,0,0,.44,6.41c.14.12.29.23.44.34l8.37,6.4a4.67,4.67,0,0,0,6.57-.52c.09-.11.18-.22.26-.34l12.28-15.72Z"/></g></g></svg>