<svg xmlns="http://www.w3.org/2000/svg" viewBox="0 0 127.96 128"><defs><style>.cls-1{fill:none;}.cls-2{fill:#fff;}</style></defs><title>inspector_settings</title><g id="Layer_2" data-name="Layer 2"><g id="Layer_1-2" data-name="Layer 1"><rect class="cls-1" width="127.96" height="128"/><path class="cls-2" d="M107.81,74.81,97.68,69a34.35,34.35,0,0,0,0-9.92l10.13-5.85a2.35,2.35,0,0,0,.86-3.21L98.47,32.31a2.35,2.35,0,0,0-3.21-.86L85.12,37.31a34,34,0,0,0-8.59-5V20.61a2.36,2.36,0,0,0-2.34-2.35H53.78a2.36,2.36,0,0,0-2.34,2.35v11.7a34,34,0,0,0-8.59,5L32.71,31.45a2.35,2.35,0,0,0-3.21.86L19.3,50a2.35,2.35,0,0,0,.86,3.21L30.29,59a34.35,34.35,0,0,0,0,9.92L20.16,74.81A2.35,2.35,0,0,0,19.3,78L29.5,95.69a2.35,2.35,0,0,0,3.21.86l10.14-5.86a34,34,0,0,0,8.59,5v11.7a2.36,2.36,0,0,0,2.34,2.35H74.19a2.36,2.36,0,0,0,2.34-2.35V95.69a34,34,0,0,0,8.59-5l10.14,5.86a2.35,2.35,0,0,0,3.21-.86L108.67,78A2.35,2.35,0,0,0,107.81,74.81ZM64,83A19,19,0,1,1,83,64,19,19,0,0,1,64,83Z"/></g></g></svg>