<svg xmlns="http://www.w3.org/2000/svg" xmlns:xlink="http://www.w3.org/1999/xlink" viewBox="0 0 127.96 128"><defs><style>.cls-1{fill:none;}.cls-2{fill:url(#linear-gradient);}.cls-3{fill:url(#linear-gradient-2);}.cls-4{fill:#808591;}.cls-5{fill:url(#linear-gradient-3);}.cls-6{fill:url(#linear-gradient-4);}</style><linearGradient id="linear-gradient" x1="42.73" y1="-10301.2" x2="47.67" y2="-10343.37" gradientTransform="translate(0 10365)" gradientUnits="userSpaceOnUse"><stop offset="0" stop-color="#3fa8f4"/><stop offset="1" stop-color="#0a77f4"/></linearGradient><linearGradient id="linear-gradient-2" x1="85.21" y1="-10300.62" x2="101.76" y2="-10261.52" gradientTransform="translate(0 10365)" gradientUnits="userSpaceOnUse"><stop offset="0" stop-color="#3fa8f4"/><stop offset="1" stop-color="#0a79f4"/></linearGradient><linearGradient id="linear-gradient-3" x1="37.98" y1="-700" x2="89.98" y2="-700" gradientTransform="matrix(1, 0, 0, -1, 0, -638)" gradientUnits="userSpaceOnUse"><stop offset="0" stop-color="#fff"/><stop offset="0.59" stop-color="#fdfdfd"/><stop offset="0.8" stop-color="#f6f6f6"/><stop offset="0.95" stop-color="#ebebeb"/><stop offset="1" stop-color="#e5e5e5"/></linearGradient><linearGradient id="linear-gradient-4" x1="313.55" y1="-572.57" x2="365.55" y2="-572.57" gradientTransform="matrix(0, 1, 1, 0, 637.05, -277.05)" xlink:href="#linear-gradient-3"/></defs><title>firewall</title><g id="Layer_2" data-name="Layer 2"><g id="Layer_1-2" data-name="Layer 1"><rect class="cls-1" width="127.96" height="128"/><path class="cls-2" d="M65,119.52C57.11,106.35,17.07,94,21.53,57.12c1.61-13.26-2.79-34.24-2.79-34.24S40.5,39.73,65,7.5Z"/><path class="cls-3" d="M65,119.52c7.87-13.17,47.91-25.57,43.46-62.4-1.61-13.26,2.78-34.24,2.78-34.24S89.5,39.73,65,7.5Z"/><rect class="cls-4" x="39.98" y="57.5" width="52" height="13"/><rect class="cls-4" x="59.48" y="38" width="13" height="52"/><rect class="cls-5" x="37.98" y="55.5" width="52" height="13"/><rect class="cls-6" x="57.98" y="36.5" width="13" height="52"/></g></g></svg>