<svg xmlns="http://www.w3.org/2000/svg" viewBox="0 0 127.96 128"><defs><style>.cls-1{fill:none;}.cls-2{fill:#f8f8f8;}.cls-3{fill:#bababa;}</style></defs><title>자산 158</title><g id="레이어_2" data-name="레이어 2"><g id="_0205" data-name="0205"><rect class="cls-1" width="127.96" height="128"/><path class="cls-2" d="M107.06,28.35h-44v-.09A11.41,11.41,0,0,0,51.66,16.84H20A11.41,11.41,0,0,0,8.63,28.26v63A13.54,13.54,0,0,0,22.16,104.8h4.25V67.08c0-2.89,3.39-6.28,6.28-6.28H94.43c2.89,0,6.28,2.34,6.28,5.23v38.73h6.35A13.54,13.54,0,0,0,120.6,91.22V41.89a13.54,13.54,0,0,0-13.54-13.54Z"/><path class="cls-2" d="M77.17,81.73H50c-1.44,0-1.57.13-1.57,1.57v21.46H78.74V83.3C78.74,81.86,78.61,81.73,77.17,81.73Z"/><path class="cls-3" d="M92.34,63.94H34.79a5.24,5.24,0,0,0-5.24,5.23v36.64A4.21,4.21,0,0,0,33.74,110h7.33a4.19,4.19,0,0,0,4.18-4.19V81.73a3.15,3.15,0,0,1,3.14-3.14H78.74a3.16,3.16,0,0,1,3.14,3.14v24.08A4.2,4.2,0,0,0,86.07,110h7.31a4.19,4.19,0,0,0,4.19-4.19h0V69.17A5.23,5.23,0,0,0,92.34,63.94Z"/></g></g></svg>