<svg xmlns="http://www.w3.org/2000/svg" viewBox="0 0 127.96 128"><defs><style>.cls-1{fill:none;}.cls-2{fill:#fff;}</style></defs><title>자산 157</title><g id="레이어_2" data-name="레이어 2"><g id="_0205" data-name="0205"><rect class="cls-1" width="127.96" height="128"/><path class="cls-2" d="M64.48,12.5a51,51,0,1,0,51,51A51,51,0,0,0,64.48,12.5Zm0,11a40,40,0,0,1,34,19H30.45A40,40,0,0,1,64.48,23.5Zm40,40a39.73,39.73,0,0,1-1.26,10H25.75a40.11,40.11,0,0,1,.29-21h76.89A40.14,40.14,0,0,1,104.47,63.5Zm-40,40a40,40,0,0,1-34.62-20H99.11A40,40,0,0,1,64.48,103.5Z"/><path class="cls-2" d="M49.49,63.5c0-29,14-42,14-42s-7-3-9-2c-11,9-15,26-15,44s4,35,15,44c2,1,9-2,9-2S49.49,92.5,49.49,63.5Z"/><path class="cls-2" d="M79.48,63.5c0-29-14-42-14-42s7-3,9-2c11,9,15,26,15,44s-4,35-15,44c-2,1-9-2-9-2S79.48,92.5,79.48,63.5Z"/></g></g></svg>