<svg xmlns="http://www.w3.org/2000/svg" viewBox="0 0 127.96 128"><defs><style>.cls-1{fill:none;}.cls-2{fill:#f8f8f8;}.cls-3{fill:#cbcbcb;}.cls-4{fill:#8c8c8c;}</style></defs><title>desktop_viewer</title><g id="Layer_2" data-name="Layer 2"><g id="Layer_1-2" data-name="Layer 1"><rect class="cls-1" width="127.96" height="128"/><polygon class="cls-2" points="102.71 40.85 102.71 113.04 20.22 113.04 20.22 11.36 73.22 11.36 102.71 40.85"/><polygon class="cls-3" points="101.92 41.3 72.86 41.3 72.86 12.24 101.92 41.3"/><rect class="cls-4" x="90.02" y="88.52" width="8.56" height="29.43" transform="translate(-45.38 96.89) rotate(-44.99)"/><path class="cls-4" d="M66.83,51.29A24.45,24.45,0,1,0,91.27,75.75,24.45,24.45,0,0,0,66.83,51.29h0Zm0,40.33A15.89,15.89,0,1,1,82.72,75.73v0h0A15.88,15.88,0,0,1,66.83,91.62Z"/><rect class="cls-3" x="90.02" y="85.8" width="8.56" height="29.43" transform="translate(-43.45 96.1) rotate(-44.99)"/><path class="cls-3" d="M66.83,48.56A24.45,24.45,0,1,0,91.27,73h0A24.45,24.45,0,0,0,66.83,48.56Zm0,40.34A15.89,15.89,0,1,1,82.72,73h0A15.88,15.88,0,0,1,66.83,88.9Z"/></g></g></svg>