<svg xmlns="http://www.w3.org/2000/svg" viewBox="0 0 127.96 128"><defs><style>.cls-1{fill:none;}.cls-2{fill:#bababa;}.cls-3{fill:#fff;}</style></defs><title>자산 160</title><g id="레이어_2" data-name="레이어 2"><g id="_0205" data-name="0205"><rect class="cls-1" width="127.96" height="128"/><rect class="cls-2" x="57.57" y="87.48" width="12" height="20.12"/><rect class="cls-2" x="43.7" y="105.66" width="39.75" height="10"/><path class="cls-2" d="M71.51,12.35H11v84H117v-84Zm35.05,72.59H21.36V25.72h85.16Z"/><path class="cls-3" d="M64,28.81a25.79,25.79,0,1,0,25.77,25.8h0A25.78,25.78,0,0,0,64,28.81Zm0,5.56a20.2,20.2,0,0,1,17.21,9.57H46.78A20.2,20.2,0,0,1,64,34.37ZM84.2,54.6a20.5,20.5,0,0,1-.64,5H44.41A20.25,20.25,0,0,1,44.55,49H83.42A20.2,20.2,0,0,1,84.2,54.6ZM64,74.82a20.2,20.2,0,0,1-17.5-10.11h35A20.22,20.22,0,0,1,64,74.82Z"/><path class="cls-3" d="M56.4,54.6c0-14.66,7.07-21.24,7.07-21.24s-3.53-1.51-4.55-1c-5.56,4.58-7.56,13.14-7.56,22.24s2,17.69,7.57,22.24c1,.51,4.55-1,4.55-1S56.4,69.26,56.4,54.6Z"/><path class="cls-3" d="M71.56,54.6c0-14.66-7.07-21.24-7.07-21.24s3.53-1.51,4.55-1c5.56,4.55,7.58,13.15,7.58,22.25S74.62,72.3,69,76.85c-1,.51-4.55-1-4.55-1S71.56,69.26,71.56,54.6Z"/></g></g></svg>