<svg xmlns="http://www.w3.org/2000/svg" viewBox="0 0 127.96 128"><defs><style>.cls-1{fill:none;}.cls-2{fill:#fff;}</style></defs><title>자산 185</title><g id="레이어_2" data-name="레이어 2"><g id="_0205" data-name="0205"><rect class="cls-1" width="127.96" height="128"/><polygon class="cls-2" points="63.42 110.45 56.11 103.57 112.16 50.72 119.48 57.61 63.42 110.45"/><polygon class="cls-2" points="56.1 92.66 48.79 85.77 99.05 38.38 106.37 45.27 56.1 92.66"/><polygon class="cls-2" points="42.39 79.74 35.07 72.85 74.68 35.52 81.99 42.41 42.39 79.74"/><polygon class="cls-2" points="24.41 73.72 17.09 66.83 73.15 13.99 80.46 20.87 24.41 73.72"/><path class="cls-2" d="M56.1,103.57a23.39,23.39,0,0,1-31.68,0A20.26,20.26,0,0,1,23.17,75c.4-.44.82-.85,1.25-1.25l-7.31-6.89a29.62,29.62,0,0,0-1.81,41.84c.58.62,1.18,1.22,1.81,1.8a34.18,34.18,0,0,0,46.31,0Z"/><path class="cls-2" d="M106.36,14a24.51,24.51,0,0,0-33.22,0l7.32,6.88a13.74,13.74,0,0,1,18.59,0,11.89,11.89,0,0,1,.73,16.79c-.23.25-.48.49-.73.72l7.32,6.89a21.24,21.24,0,0,0,1.27-30C107.23,14.84,106.81,14.41,106.36,14Z"/><path class="cls-2" d="M48.79,85.77a4.71,4.71,0,0,1-6.4,0A4.08,4.08,0,0,1,42.17,80l.22-.22-7.32-6.89a13.44,13.44,0,0,0-.82,19c.26.28.54.56.82.82a15.52,15.52,0,0,0,21,0Z"/></g></g></svg>