<svg xmlns="http://www.w3.org/2000/svg" viewBox="0 0 127.96 128"><defs><style>.cls-1{fill:none;}.cls-2{fill:#f8f8f8;}</style></defs><title>자산 155</title><g id="레이어_2" data-name="레이어 2"><g id="_0205" data-name="0205"><rect class="cls-1" width="127.96" height="128"/><path class="cls-2" d="M64.26,18.51c-21.73,0-41.42,10-55.76,26.31l10.25,11.8C30.47,43.34,46.56,35.15,64.3,35.15c17.94,0,34.18,8.37,46,21.92l10.23-11.74C106.09,28.76,86.22,18.51,64.26,18.51Z"/><path class="cls-2" d="M82.26,88.3a22.73,22.73,0,0,0-32-3.37A22.34,22.34,0,0,0,47,88.14L64.67,108.5Z"/><path class="cls-2" d="M64.49,48.66c-14.28,0-27.22,6.6-36.65,17.3L38.74,78.5C45.38,71,54.48,66.34,64.53,66.34s19.38,4.75,26,12.42L101.4,66.3C92,55.4,78.92,48.66,64.49,48.66Z"/></g></g></svg>