<svg xmlns="http://www.w3.org/2000/svg" xmlns:xlink="http://www.w3.org/1999/xlink" viewBox="0 0 141.6 141.64"><defs><style>.cls-1,.cls-7{fill:none;}.cls-2{fill:url(#무제_그라디언트_5);}.cls-3{fill:url(#무제_그라디언트_6);}.cls-4{opacity:0.6;}.cls-5{clip-path:url(#clip-path);}.cls-6{opacity:0.63;}.cls-7{stroke:#eaeaea;stroke-miterlimit:10;stroke-width:0.25px;}.cls-8{fill:url(#무제_그라디언트_2);}.cls-9{fill:#6a96a0;}</style><linearGradient id="무제_그라디언트_5" x1="70.41" y1="11179.97" x2="70.99" y2="11098.56" gradientTransform="matrix(1, 0, 0, -1, 0, 11207.66)" gradientUnits="userSpaceOnUse"><stop offset="0" stop-color="#92dceb" stop-opacity="0.3"/><stop offset="1" stop-color="#c7f0ed" stop-opacity="0.5"/></linearGradient><linearGradient id="무제_그라디언트_6" x1="23.54" y1="11136.61" x2="117.49" y2="11136.61" gradientTransform="matrix(1, 0, 0, -1, 0, 11207.66)" gradientUnits="userSpaceOnUse"><stop offset="0" stop-color="#609ccb"/><stop offset="1" stop-color="#48a997"/></linearGradient><clipPath id="clip-path"><ellipse class="cls-1" cx="70.8" cy="70.81" rx="37.73" ry="37.74"/></clipPath><linearGradient id="무제_그라디언트_2" x1="70.72" y1="11195.22" x2="70.72" y2="11083.08" gradientTransform="matrix(1, 0, 0, -1, 0, 11207.66)" gradientUnits="userSpaceOnUse"><stop offset="0" stop-color="#cadde4"/><stop offset="0.17" stop-color="#c3d7dd" stop-opacity="0.99"/><stop offset="0.44" stop-color="#b1c6cc" stop-opacity="0.98"/><stop offset="0.74" stop-color="#96adb1" stop-opacity="0.95"/><stop offset="0.95" stop-color="#85a39f" stop-opacity="0.5"/><stop offset="1" stop-color="#81a19b" stop-opacity="0.4"/></linearGradient></defs><title>자산 159</title><g id="레이어_2" data-name="레이어 2"><g id="_0205" data-name="0205"><rect class="cls-1" x="6.3" y="7.33" width="127.96" height="128"/><ellipse class="cls-2" cx="70.72" cy="71.05" rx="37.73" ry="37.74"/><polygon class="cls-3" points="70.54 71.04 47.01 47.51 35.3 59.22 35.25 59.27 23.54 70.99 35.3 82.75 47.01 71.04 58.77 82.81 58.75 82.83 70.52 94.6 70.54 94.58 82.3 82.81 94.04 71.07 105.73 82.75 117.49 70.99 105.81 59.3 105.73 59.22 94.04 47.53 70.54 71.04"/><g class="cls-4"><g class="cls-5"><g class="cls-6"><rect class="cls-7" x="62.47" y="121.36" width="16.65" height="16.65" transform="translate(-70.97 88.07) rotate(-45.01)"/><rect class="cls-7" x="50.7" y="109.58" width="16.65" height="16.65" transform="translate(-66.09 76.28) rotate(-45.01)"/><rect class="cls-7" x="38.93" y="97.81" width="16.65" height="16.65" transform="translate(-61.22 64.52) rotate(-45.01)"/><rect class="cls-7" x="27.16" y="86.03" width="16.65" height="16.65" transform="translate(-56.33 52.74) rotate(-45.01)"/><rect class="cls-7" x="15.39" y="74.26" width="16.65" height="16.65" transform="translate(-51.46 40.97) rotate(-45.01)"/><rect class="cls-7" x="3.62" y="62.48" width="16.65" height="16.65" transform="translate(-46.58 29.19) rotate(-45.01)"/><rect class="cls-7" x="74.24" y="109.58" width="16.65" height="16.65" transform="translate(-59.19 92.94) rotate(-45.01)"/><rect class="cls-7" x="62.47" y="97.82" width="16.65" height="16.65" transform="translate(-54.32 81.17) rotate(-45.01)"/><rect class="cls-7" x="50.7" y="86.03" width="16.65" height="16.65" transform="translate(-49.43 69.39) rotate(-45.01)"/><rect class="cls-7" x="38.93" y="74.26" width="16.65" height="16.65" transform="translate(-44.56 57.62) rotate(-45.01)"/><rect class="cls-7" x="27.16" y="62.5" width="16.65" height="16.65" transform="translate(-39.69 45.85) rotate(-45.01)"/><rect class="cls-7" x="15.39" y="50.71" width="16.65" height="16.65" transform="translate(-34.8 34.07) rotate(-45.01)"/><rect class="cls-7" x="86.02" y="97.82" width="16.65" height="16.65" transform="translate(-47.42 97.82) rotate(-45.01)"/><rect class="cls-7" x="74.24" y="86.03" width="16.65" height="16.65" transform="translate(-42.54 86.03) rotate(-45.01)"/><rect class="cls-7" x="62.47" y="74.27" width="16.65" height="16.65" transform="translate(-37.67 74.26) rotate(-45.01)"/><rect class="cls-7" x="50.71" y="62.5" width="16.65" height="16.65" transform="translate(-32.79 62.5) rotate(-45.01)"/><rect class="cls-7" x="38.93" y="50.71" width="16.65" height="16.65" transform="translate(-27.9 50.71) rotate(-45.01)"/><rect class="cls-7" x="27.16" y="38.95" width="16.65" height="16.65" transform="translate(-23.03 38.94) rotate(-45.01)"/><rect class="cls-7" x="97.78" y="86.03" width="16.65" height="16.65" transform="translate(-35.64 102.68) rotate(-45.01)"/><rect class="cls-7" x="86.02" y="74.26" width="16.65" height="16.65" transform="translate(-30.77 90.91) rotate(-45.01)"/><rect class="cls-7" x="74.24" y="62.49" width="16.65" height="16.65" transform="translate(-25.89 79.14) rotate(-45.01)"/><rect class="cls-7" x="62.47" y="50.71" width="16.65" height="16.65" transform="translate(-21.01 67.36) rotate(-45.01)"/><rect class="cls-7" x="50.71" y="38.94" width="16.65" height="16.65" transform="translate(-16.13 55.59) rotate(-45.01)"/><rect class="cls-7" x="38.93" y="27.17" width="16.65" height="16.65" transform="translate(-11.26 43.82) rotate(-45.01)"/><rect class="cls-7" x="109.55" y="74.26" width="16.65" height="16.65" transform="translate(-23.87 107.56) rotate(-45.01)"/><rect class="cls-7" x="97.79" y="62.49" width="16.65" height="16.65" transform="translate(-18.99 95.79) rotate(-45.01)"/><rect class="cls-7" x="86.01" y="50.71" width="16.65" height="16.65" transform="translate(-14.11 84.01) rotate(-45.01)"/><rect class="cls-7" x="74.24" y="38.94" width="16.65" height="16.65" transform="translate(-9.24 72.24) rotate(-45.01)"/><rect class="cls-7" x="62.47" y="27.18" width="16.65" height="16.65" transform="translate(-4.36 60.47) rotate(-45.01)"/><rect class="cls-7" x="50.7" y="15.39" width="16.65" height="16.65" transform="translate(0.52 48.69) rotate(-45.01)"/><rect class="cls-7" x="121.33" y="62.5" width="16.65" height="16.65" transform="translate(-12.1 112.44) rotate(-45.01)"/><rect class="cls-7" x="109.55" y="50.71" width="16.65" height="16.65" transform="translate(-7.21 100.66) rotate(-45.01)"/><rect class="cls-7" x="97.79" y="38.94" width="16.65" height="16.65" transform="translate(-2.34 88.89) rotate(-45.01)"/><rect class="cls-7" x="86.02" y="27.18" width="16.65" height="16.65" transform="translate(2.54 77.12) rotate(-45.01)"/><rect class="cls-7" x="74.24" y="15.39" width="16.65" height="16.65" transform="translate(7.42 65.34) rotate(-45.01)"/><rect class="cls-7" x="62.47" y="3.63" width="16.65" height="16.65" transform="translate(12.29 53.57) rotate(-45.01)"/></g></g></g><path class="cls-8" d="M70.72,15a56.07,56.07,0,1,0,56.05,56.07A56.06,56.06,0,0,0,70.72,15Zm0,97.05a41,41,0,1,1,41-41h0A41,41,0,0,1,70.72,112Z"/><path class="cls-9" d="M70.72,30.07a41,41,0,1,0,41,41h0A41,41,0,0,0,70.72,30.07Zm0,78.72a37.74,37.74,0,1,1,37.73-37.74h0A37.74,37.74,0,0,1,70.72,108.79Z"/></g></g></svg>